<svg width="500" height="350" viewBox="0 0 500 350" xmlns="http://www.w3.org/2000/svg">
  <g stroke="black" fill="none" stroke-width="1">
    <polygon points="120,280 130,297.32 150,297.32 160,280 150,262.68 130,262.68"/>
    <polygon points="150,297.32 160,314.64 180,314.64 190,297.32 180,280 160,280"/>
    <polygon points="180,314.64 190,331.96 210,331.96 220,314.64 210,297.32 190,297.32"/>
    <polygon points="150,262.68 160,280 180,280 190,262.68 180,245.36 160,245.36"/>
    <polygon points="180,280 190,297.32 210,297.32 220,280 210,262.68 190,262.68"/>
    <polygon points="210,297.32 220,314.64 240,314.64 250,297.32 240,280 220,280"/>
    <polygon points="180,245.36 190,262.68 210,262.68 220,245.36 210,228.04 190,228.04"/>
    <polygon points="210,262.68 220,280 240,280 250,262.68 240,245.36 220,245.36"/>
    <polygon points="240,280 250,297.32 270,297.32 280,280 270,262.68 250,262.68"/>
    <polygon points="210,228.04 220,245.36 240,245.36 250,228.04 240,210.72 220,210.72"/>
    <polygon points="240,245.36 250,262.68 270,262.68 280,245.36 270,228.04 250,228.04"/>
    <polygon points="270,262.68 280,280 300,280 310,262.68 300,245.36 280,245.36"/>
    <polygon points="240,210.72 250,228.04 270,228.04 280,210.72 270,193.4 250,193.4"/>
    <polygon points="270,228.04 280,245.36 300,245.36 310,228.04 300,210.72 280,210.72"/>
    <polygon points="300,245.36 310,262.68 330,262.68 340,245.36 330,228.04 310,228.04"/>
    <polygon points="270,193.4 280,210.72 300,210.72 310,193.4 300,176.08 280,176.08"/>
    <polygon points="300,210.72 310,228.04 330,228.04 340,210.72 330,193.4 310,193.4"/>
    <polygon points="330,228.04 340,245.36 360,245.36 370,228.04 360,210.72 340,210.72"/>
    <polygon points="300,176.08 310,193.4 330,193.4 340,176.08 330,158.76 310,158.76"/>
    <polygon points="330,193.4 340,210.72 360,210.72 370,193.4 360,176.08 340,176.08"/>
    <polygon points="360,210.72 370,228.04 390,228.04 400,210.72 390,193.4 370,193.4"/>
    <polygon points="330,158.76 340,176.08 360,176.08 370,158.76 360,141.44 340,141.44"/>
    <polygon points="360,176.08 370,193.4 390,193.4 400,176.08 390,158.76 370,158.76"/>
    <polygon points="390,193.4 400,210.72 420,210.72 430,193.4 420,176.08 400,176.08"/>
    <polygon points="360,141.44 370,158.76 390,158.76 400,141.44 390,124.12 370,124.12"/>
    <polygon points="390,158.76 400,176.08 420,176.08 430,158.76 420,141.44 400,141.44"/>
    <polygon points="420,176.08 430,193.4 450,193.4 460,176.08 450,158.76 430,158.76"/>
    <polygon points="390,124.12 400,141.44 420,141.44 430,124.12 420,106.8 400,106.8"/>
    <polygon points="420,141.44 430,158.76 450,158.76 460,141.44 450,124.12 430,124.12"/>
    <polygon points="450,158.76 460,176.08 480,176.08 490,158.76 480,141.44 460,141.44"/>
    <polygon points="420,106.8 430,124.12 450,124.12 460,106.8 450,89.48 430,89.48"/>
    <polygon points="450,124.12 460,141.44 480,141.44 490,124.12 480,106.8 460,106.8"/>
    <polygon points="480,141.44 490,158.76 510,158.76 520,141.44 510,124.12 490,124.12"/>
    <polygon points="450,89.48 460,106.8 480,106.8 490,89.48 480,72.16 460,72.16"/>
    <polygon points="480,106.8 490,124.12 510,124.12 520,106.8 510,89.48 490,89.48"/>
    <polygon points="510,124.12 520,141.44 540,141.44 550,124.12 540,106.8 520,106.8"/>
    <polygon points="90,262.68 100,280 120,280 130,262.68 120,245.36 100,245.36"/>
    <polygon points="120,245.36 130,262.68 150,262.68 160,245.36 150,228.04 130,228.04"/>
    <polygon points="150,228.04 160,245.36 180,245.36 190,228.04 180,210.72 160,210.72"/>
    <polygon points="90,228.04 100,245.36 120,245.36 130,228.04 120,210.72 100,210.72"/>
    <polygon points="120,210.72 130,228.04 150,228.04 160,210.72 150,193.4 130,193.4"/>
    <polygon points="150,193.4 160,210.72 180,210.72 190,193.4 180,176.08 160,176.08"/>
    <polygon points="60,245.36 70,262.68 90,262.68 100,245.36 90,228.04 70,228.04"/>
    <polygon points="90,228.04 100,245.36 120,245.36 130,228.04 120,210.72 100,210.72"/>
    <polygon points="120,210.72 130,228.04 150,228.04 160,210.72 150,193.4 130,193.4"/>
    <polygon points="60,210.72 70,228.04 90,228.04 100,210.72 90,193.4 70,193.4"/>
    <polygon points="90,193.4 100,210.72 120,210.72 130,193.4 120,176.08 100,176.08"/>
    <polygon points="120,176.08 130,193.4 150,193.4 160,176.08 150,158.76 130,158.76"/>
    <polygon points="30,228.04 40,245.36 60,245.36 70,228.04 60,210.72 40,210.72"/>
    <polygon points="60,210.72 70,228.04 90,228.04 100,210.72 90,193.4 70,193.4"/>
    <polygon points="90,193.4 100,210.72 120,210.72 130,193.4 120,176.08 100,176.08"/>
    <polygon points="30,193.4 40,210.72 60,210.72 70,193.4 60,176.08 40,176.08"/>
    <polygon points="60,176.08 70,193.4 90,193.4 100,176.08 90,158.76 70,158.76"/>
    <polygon points="90,158.76 100,176.08 120,176.08 130,158.76 120,141.44 100,141.44"/>
    <polygon points="0,210.72 10,228.04 30,228.04 40,210.72 30,193.4 10,193.4"/>
    <polygon points="30,193.4 40,210.72 60,210.72 70,193.4 60,176.08 40,176.08"/>
    <polygon points="60,176.08 70,193.4 90,193.4 100,176.08 90,158.76 70,158.76"/>
    <polygon points="0,176.08 10,193.4 30,193.4 40,176.08 30,158.76 10,158.76"/>
    <polygon points="30,158.76 40,176.08 60,176.08 70,158.76 60,141.44 40,141.44"/>
    <polygon points="60,141.44 70,158.76 90,158.76 100,141.44 90,124.12 70,124.12"/>
    <polygon points="150,158.76 160,176.08 180,176.08 190,158.76 180,141.44 160,141.44"/>
    <polygon points="180,176.08 190,193.4 210,193.4 220,176.08 210,158.76 190,158.76"/>
    <polygon points="210,193.4 220,210.72 240,210.72 250,193.4 240,176.08 220,176.08"/>
    <polygon points="150,124.12 160,141.44 180,141.44 190,124.12 180,106.8 160,106.8"/>
    <polygon points="180,141.44 190,158.76 210,158.76 220,141.44 210,124.12 190,124.12"/>
    <polygon points="210,158.76 220,176.08 240,176.08 250,158.76 240,141.44 220,141.44"/>
    <polygon points="150,89.48 160,106.8 180,106.8 190,89.48 180,72.16 160,72.16"/>
    <polygon points="180,106.8 190,124.12 210,124.12 220,106.8 210,89.48 190,89.48"/>
    <polygon points="210,124.12 220,141.44 240,141.44 250,124.12 240,106.8 220,106.8"/>
    <polygon points="150,54.84 160,72.16 180,72.16 190,54.84 180,37.52 160,37.52"/>
    <polygon points="180,72.16 190,89.48 210,89.48 220,72.16 210,54.84 190,54.84"/>
    <polygon points="210,89.48 220,106.8 240,106.8 250,89.48 240,72.16 220,72.16"/>
    <polygon points="120,141.44 130,158.76 150,158.76 160,141.44 150,124.12 130,124.12"/>
    <polygon points="150,124.12 160,141.44 180,141.44 190,124.12 180,106.8 160,106.8"/>
    <polygon points="180,106.8 190,124.12 210,124.12 220,106.8 210,89.48 190,89.48"/>
    <polygon points="120,106.8 130,124.12 150,124.12 160,106.8 150,89.48 130,89.48"/>
    <polygon points="150,89.48 160,106.8 180,106.8 190,89.48 180,72.16 160,72.16"/>
    <polygon points="180,72.16 190,89.48 210,89.48 220,72.16 210,54.84 190,54.84"/>
    <polygon points="120,72.16 130,89.48 150,89.48 160,72.16 150,54.84 130,54.84"/>
    <polygon points="150,54.84 160,72.16 180,72.16 190,54.84 180,37.52 160,37.52"/>
    <polygon points="180,37.52 190,54.84 210,54.84 220,37.52 210,20.2 190,20.2"/>
    <polygon points="120,37.52 130,54.84 150,54.84 160,37.52 150,20.2 130,20.2"/>
    <polygon points="150,20.2 160,37.52 180,37.52 190,20.2 180,2.88 160,2.88"/>
    <polygon points="180,2.88 190,20.2 210,20.2 220,2.88 210,-14.44 190,-14.44"/>
    <polygon points="90,124.12 100,141.44 120,141.44 130,124.12 120,106.8 100,106.8"/>
    <polygon points="120,106.8 130,124.12 150,124.12 160,106.8 150,89.48 130,89.48"/>
    <polygon points="150,89.48 160,106.8 180,106.8 190,89.48 180,72.16 160,72.16"/>
    <polygon points="90,89.48 100,106.8 120,106.8 130,89.48 120,72.16 100,72.16"/>
    <polygon points="120,72.16 130,89.48 150,89.48 160,72.16 150,54.84 130,54.84"/>
    <polygon points="150,54.84 160,72.16 180,72.16 190,54.84 180,37.52 160,37.52"/>
    <polygon points="90,54.84 100,72.16 120,72.16 130,54.84 120,37.52 100,37.52"/>
    <polygon points="120,37.52 130,54.84 150,54.84 160,37.52 150,20.2 130,20.2"/>
    <polygon points="150,20.2 160,37.52 180,37.52 190,20.2 180,2.88 160,2.88"/>
    <polygon points="90,20.2 100,37.52 120,37.52 130,20.2 120,2.88 100,2.88"/>
    <polygon points="120,2.88 130,20.2 150,20.2 160,2.88 150,-14.44 130,-14.44"/>
    <polygon points="150,-14.44 160,2.88 180,2.88 190,-14.44 180,-31.76 160,-31.76"/>
    <polygon points="240,176.08 250,193.4 270,193.4 280,176.08 270,158.76 250,158.76"/>
    <polygon points="270,193.4 280,210.72 300,210.72 310,193.4 300,176.08 280,176.08"/>
    <polygon points="300,210.72 310,228.04 330,228.04 340,210.72 330,193.4 310,193.4"/>
    <polygon points="240,141.44 250,158.76 270,158.76 280,141.44 270,124.12 250,124.12"/>
    <polygon points="270,158.76 280,176.08 300,176.08 310,158.76 300,141.44 280,141.44"/>
    <polygon points="300,176.08 310,193.4 330,193.4 340,176.08 330,158.76 310,158.76"/>
    <polygon points="240,106.8 250,124.12 270,124.12 280,106.8 270,89.48 250,89.48"/>
    <polygon points="270,124.12 280,141.44 300,141.44 310,124.12 300,106.8 280,106.8"/>
    <polygon points="300,141.44 310,158.76 330,158.76 340,141.44 330,124.12 310,124.12"/>
    <polygon points="240,72.16 250,89.48 270,89.48 280,72.16 270,54.84 250,54.84"/>
    <polygon points="270,89.48 280,106.8 300,106.8 310,89.48 300,72.16 280,72.16"/>
    <polygon points="300,106.8 310,124.12 330,124.12 340,106.8 330,89.48 310,89.48"/>
    <polygon points="330,193.4 340,210.72 360,210.72 370,193.4 360,176.08 340,176.08"/>
    <polygon points="360,210.72 370,228.04 390,228.04 400,210.72 390,193.4 370,193.4"/>
    <polygon points="390,228.04 400,245.36 420,245.36 430,228.04 420,210.72 400,210.72"/>
    <polygon points="330,158.76 340,176.08 360,176.08 370,158.76 360,141.44 340,141.44"/>
    <polygon points="360,176.08 370,193.4 390,193.4 400,176.08 390,158.76 370,158.76"/>
    <polygon points="390,193.4 400,210.72 420,210.72 430,193.4 420,176.08 400,176.08"/>
    <polygon points="330,124.12 340,141.44 360,141.44 370,124.12 360,106.8 340,106.8"/>
    <polygon points="360,141.44 370,158.76 390,158.76 400,141.44 390,124.12 370,124.12"/>
    <polygon points="390,158.76 400,176.08 420,176.08 430,158.76 420,141.44 400,141.44"/>
    <polygon points="330,89.48 340,106.8 360,106.8 370,89.48 360,72.16 340,72.16"/>
    <polygon points="360,106.8 370,124.12 390,124.12 400,106.8 390,89.48 370,89.48"/>
    <polygon points="390,124.12 400,141.44 420,141.44 430,124.12 420,106.8 400,106.8"/>
    <polygon points="420,210.72 430,228.04 450,228.04 460,210.72 450,193.4 430,193.4"/>
    <polygon points="450,228.04 460,245.36 480,245.36 490,228.04 480,210.72 460,210.72"/>
    <polygon points="480,245.36 490,262.68 510,262.68 520,245.36 510,228.04 490,228.04"/>
    <polygon points="420,176.08 430,193.4 450,193.4 460,176.08 450,158.76 430,158.76"/>
    <polygon points="450,193.4 460,210.72 480,210.72 490,193.4 480,176.08 460,176.08"/>
    <polygon points="480,210.72 490,228.04 510,228.04 520,210.72 510,193.4 490,193.4"/>
    <polygon points="420,141.44 430,158.76 450,158.76 460,141.44 450,124.12 430,124.12"/>
    <polygon points="450,158.76 460,176.08 480,176.08 490,158.76 480,141.44 460,141.44"/>
    <polygon points="480,176.08 490,193.4 510,193.4 520,176.08 510,158.76 490,158.76"/>
    <polygon points="420,106.8 430,124.12 450,124.12 460,106.8 450,89.48 430,89.48"/>
    <polygon points="450,124.12 460,141.44 480,141.44 490,124.12 480,106.8 460,106.8"/>
    <polygon points="480,141.44 490,158.76 510,158.76 520,141.44 510,124.12 490,124.12"/>
    <polygon points="210,54.84 220,72.16 240,72.16 250,54.84 240,37.52 220,37.52"/>
    <polygon points="240,72.16 250,89.48 270,89.48 280,72.16 270,54.84 250,54.84"/>
    <polygon points="270,89.48 280,106.8 300,106.8 310,89.48 300,72.16 280,72.16"/>
    <polygon points="210,20.2 220,37.52 240,37.52 250,20.2 240,2.88 220,2.88"/>
    <polygon points="240,37.52 250,54.84 270,54.84 280,37.52 270,20.2 250,20.2"/>
    <polygon points="270,54.84 280,72.16 300,72.16 310,54.84 300,37.52 280,37.52"/>
    <polygon points="210,-14.44 220,2.88 240,2.88 250,-14.44 240,-31.76 220,-31.76"/>
    <polygon points="240,2.88 250,20.2 270,20.2 280,2.88 270,-14.44 250,-14.44"/>
    <polygon points="270,20.2 280,37.52 300,37.52 310,20.2 300,2.88 280,2.88"/>
    <polygon points="210,-49.08 220,-31.76 240,-31.76 250,-49.08 240,-66.4 220,-66.4"/>
    <polygon points="240,-31.76 250,-14.44 270,-14.44 280,-31.76 270,-49.08 250,-49.08"/>
    <polygon points="270,-14.44 280,2.88 300,2.88 310,-14.44 300,-31.76 280,-31.76"/>
    <polygon points="300,72.16 310,89.48 330,89.48 340,72.16 330,54.84 310,54.84"/>
    <polygon points="330,89.48 340,106.8 360,106.8 370,89.48 360,72.16 340,72.16"/>
    <polygon points="360,106.8 370,124.12 390,124.12 400,106.8 390,89.48 370,89.48"/>
    <polygon points="300,37.52 310,54.84 330,54.84 340,37.52 330,20.2 310,20.2"/>
    <polygon points="330,54.84 340,72.16 360,72.16 370,54.84 360,37.52 340,37.52"/>
    <polygon points="360,72.16 370,89.48 390,89.48 400,72.16 390,54.84 370,54.84"/>
    <polygon points="300,2.88 310,20.2 330,20.2 340,2.88 330,-14.44 310,-14.44"/>
    <polygon points="330,20.2 340,37.52 360,37.52 370,20.2 360,2.88 340,2.88"/>
    <polygon points="360,37.52 370,54.84 390,54.84 400,37.52 390,20.2 370,20.2"/>
    <polygon points="300,-31.76 310,-14.44 330,-14.44 340,-31.76 330,-49.08 310,-49.08"/>
    <polygon points="330,-14.44 340,2.88 360,2.88 370,-14.44 360,-31.76 340,-31.76"/>
    <polygon points="360,2.88 370,20.2 390,20.2 400,2.88 390,-14.44 370,-14.44"/>
    <polygon points="390,89.48 400,106.8 420,106.8 430,89.48 420,72.16 400,72.16"/>
    <polygon points="420,106.8 430,124.12 450,124.12 460,106.8 450,89.48 430,89.48"/>
    <polygon points="450,124.12 460,141.44 480,141.44 490,124.12 480,106.8 460,106.8"/>
    <polygon points="390,54.84 400,72.16 420,72.16 430,54.84 420,37.52 400,37.52"/>
    <polygon points="420,72.16 430,89.48 450,89.48 460,72.16 450,54.84 430,54.84"/>
    <polygon points="450,89.48 460,106.8 480,106.8 490,89.48 480,72.16 460,72.16"/>
    <polygon points="390,20.2 400,37.52 420,37.52 430,20.2 420,2.88 400,2.88"/>
    <polygon points="420,37.52 430,54.84 450,54.84 460,37.52 450,20.2 430,20.2"/>
    <polygon points="450,54.84 460,72.16 480,72.16 490,54.84 480,37.52 460,37.52"/>
    <polygon points="390,-14.44 400,2.88 420,2.88 430,-14.44 420,-31.76 400,-31.76"/>
    <polygon points="420,2.88 430,20.2 450,20.2 460,2.88 450,-14.44 430,-14.44"/>
    <polygon points="450,20.2 460,37.52 480,37.52 490,20.2 480,2.88 460,2.88"/>
    <polygon points="480,106.8 490,124.12 510,124.12 520,106.8 510,89.48 490,89.48"/>
    <polygon points="510,124.12 520,141.44 540,141.44 550,124.12 540,106.8 520,106.8"/>
    <polygon points="540,141.44 550,158.76 570,158.76 580,141.44 570,124.12 550,124.12"/>
    <polygon points="480,72.16 490,89.48 510,89.48 520,72.16 510,54.84 490,54.84"/>
    <polygon points="510,89.48 520,106.8 540,106.8 550,89.48 540,72.16 520,72.16"/>
    <polygon points="540,106.8 550,124.12 570,124.12 580,106.8 570,89.48 550,89.48"/>
    <polygon points="480,37.52 490,54.84 510,54.84 520,37.52 510,20.2 490,20.2"/>
    <polygon points="510,54.84 520,72.16 540,72.16 550,54.84 540,37.52 520,37.52"/>
    <polygon points="540,72.16 550,89.48 570,89.48 580,72.16 570,54.84 550,54.84"/>
    <polygon points="480,2.88 490,20.2 510,20.2 520,2.88 510,-14.44 490,-14.44"/>
    <polygon points="510,20.2 520,37.52 540,37.52 550,20.2 540,2.88 520,2.88"/>
    <polygon points="540,37.52 550,54.84 570,54.84 580,37.52 570,20.2 550,20.2"/>
    <polygon points="570,124.12 580,141.44 600,141.44 610,124.12 600,106.8 580,106.8"/>
    <polygon points="600,141.44 610,158.76 630,158.76 640,141.44 630,124.12 610,124.12"/>
    <polygon points="630,158.76 640,176.08 660,176.08 670,158.76 660,141.44 640,141.44"/>
    <polygon points="570,89.48 580,106.8 600,106.8 610,89.48 600,72.16 580,72.16"/>
    <polygon points="600,106.8 610,124.12 630,124.12 640,106.8 630,89.48 610,89.48"/>
    <polygon points="630,124.12 640,141.44 660,141.44 670,124.12 660,106.8 640,106.8"/>
    <polygon points="570,54.84 580,72.16 600,72.16 610,54.84 600,37.52 580,37.52"/>
    <polygon points="600,72.16 610,89.48 630,89.48 640,72.16 630,54.84 610,54.84"/>
    <polygon points="630,89.48 640,106.8 660,106.8 670,89.48 660,72.16 640,72.16"/>
    <polygon points="570,20.2 580,37.52 600,37.52 610,20.2 600,2.88 580,2.88"/>
    <polygon points="600,37.52 610,54.84 630,54.84 640,37.52 630,20.2 610,20.2"/>
    <polygon points="630,54.84 640,72.16 660,72.16 670,54.84 660,37.52 640,37.52"/>
  </g>
</svg>